<?xml version="1.0" encoding="UTF-8"?>
<!DOCTYPE svg PUBLIC "-//W3C//DTD SVG 1.1//EN" "http://www.w3.org/Graphics/SVG/1.1/DTD/svg11.dtd">
<!-- Creator: CorelDRAW X8 -->
<svg xmlns="http://www.w3.org/2000/svg" xml:space="preserve" width="100mm" height="50mm" version="1.1" style="shape-rendering:geometricPrecision; text-rendering:geometricPrecision; image-rendering:optimizeQuality; fill-rule:evenodd; clip-rule:evenodd"
viewBox="0 0 10000 5000"
 xmlns:xlink="http://www.w3.org/1999/xlink">
 <defs>
  <style type="text/css">
   <![CDATA[
    .fil2 {fill:#1976D1;fill-rule:nonzero}
    .fil1 {fill:url(#id0);fill-rule:nonzero}
    .fil0 {fill:url(#id1);fill-rule:nonzero}
   ]]>
  </style>
  <linearGradient id="id0" gradientUnits="userSpaceOnUse" x1="7834.26" y1="1992.52" x2="7203.08" y2="1185.36">
   <stop offset="0" style="stop-opacity:1; stop-color:#114C8F"/>
   <stop offset="0.12549" style="stop-opacity:1; stop-color:#1358A6"/>
   <stop offset="0.501961" style="stop-opacity:1; stop-color:#2196F3"/>
   <stop offset="1" style="stop-opacity:1; stop-color:#1564BE"/>
  </linearGradient>
  <linearGradient id="id1" gradientUnits="objectBoundingBox" xlink:href="#id0" x1="51.4263%" y1="119.284%" x2="48.5738%" y2="0%">
  </linearGradient>
 </defs>
 <g id="Layer_x0020_1">
  <metadata id="CorelCorpID_0Corel-Layer"/>
  <g id="_2942211229264">
   <g>
    <polygon class="fil0" points="1767,1784 1111,2338 1846,3081 1732,3081 1445,3081 893,2523 735,2653 735,3081 619,3081 450,3081 450,1784 735,1784 735,2281 1324,1784 1546,1784 "/>
    <path id="1" class="fil0" d="M3259 3081l0 -387 -1042 0 0 387 -243 0 0 -847c0,-128 62,-228 186,-300 105,-62 226,-93 363,-93l416 0c133,0 255,32 366,96 132,75 198,174 198,297l0 847 -244 0zm0 -795c0,-64 -39,-115 -117,-153 -67,-32 -135,-48 -203,-48l-416 0c-59,0 -122,19 -190,57 -77,43 -116,91 -116,144l0 164 1042 0 0 -164z"/>
    <path id="2" class="fil0" d="M5246 2961c0,34 -9,64 -28,90 -19,26 -46,39 -79,39 -30,0 -60,-11 -89,-34l-1089 -844 0 869 -244 0 0 -1117c0,-36 10,-67 29,-92 19,-25 46,-38 81,-38 29,0 58,12 87,34l1089 844 0 -871 243 0 0 1120z"/>
    <path id="3" class="fil0" d="M6624 3081l-782 -423 -146 0 0 423 -243 0 0 -1240 983 0c155,0 270,12 346,35 133,43 200,124 200,242l0 301c0,79 -45,142 -135,187 -74,37 -155,56 -243,56l-302 0 794 419 -472 0zm114 -916c0,-54 -100,-80 -302,-80l-740 0 0 335 908 -1c26,0 53,-6 82,-16 35,-13 52,-31 52,-53l0 -185z"/>
    <path id="4" class="fil0" d="M9550 2806c0,104 -69,180 -208,227 -97,32 -210,48 -339,48l-937 0 0 -243 937 0c202,0 304,-31 304,-94l0 -178c0,-61 -102,-92 -304,-92l-436 0c-334,0 -501,-77 -501,-232l0 -156c0,-163 167,-245 501,-245l931 0 0 244 -931 0c-76,0 -125,1 -145,5 -71,7 -107,29 -107,65l0 20c0,38 49,57 146,57 5,0 12,0 20,0 9,0 20,0 32,-1l54 0 436 0c136,0 250,14 341,43 137,46 206,123 206,230l0 302z"/>
    <polygon id="5" class="fil0" points="7429,3081 7429,2151 7611,2151 7611,3081 "/>
    <path class="fil1" d="M6931 1384l84 79c130,-139 313,-219 504,-219 193,0 372,78 504,219l84 -79c-152,-162 -366,-255 -588,-255 -222,0 -437,93 -588,255zm162 164l85 77c87,-96 211,-151 341,-151 129,0 254,55 341,151l85 -77c-109,-120 -264,-189 -426,-189 -162,0 -317,69 -426,189zm161 165l88 73c88,-105 266,-105 353,1l89 -74c-66,-79 -163,-124 -265,-124 -103,0 -199,45 -265,124zm380 221c0,63 -52,115 -115,115 -64,0 -115,-52 -115,-115 0,-64 51,-115 115,-115 63,0 115,51 115,115z"/>
   </g>
   <polygon class="fil2" points="524,3871 450,3871 450,3480 524,3480 "/>
   <path id="1" class="fil2" d="M855 3557c2,12 3,23 4,35 1,12 1,24 1,35l0 244 -68 0 0 -392 56 0 288 256c9,7 17,15 24,24 8,9 15,19 23,30 -2,-12 -4,-24 -5,-36 -1,-12 -1,-24 -1,-37l0 -237 68 0 0 392 -50 0 -294 -260c-10,-9 -19,-19 -26,-27 -8,-9 -14,-17 -20,-27z"/>
   <polygon id="2" class="fil2" points="1515,3871 1515,3479 1905,3479 1905,3537 1589,3537 1589,3658 1767,3658 1767,3716 1589,3716 1589,3871 "/>
   <path id="3" class="fil2" d="M2170 3812l328 0 0 -275 -328 0 0 275zm-73 -240c0,-36 6,-60 20,-74 13,-13 39,-19 76,-19l283 0c37,0 62,6 75,19 14,14 21,38 21,74l0 206c0,36 -7,61 -20,74 -14,12 -39,19 -76,19l-283 0c-38,0 -63,-7 -77,-19 -13,-13 -19,-37 -19,-74l0 -206z"/>
   <polygon id="4" class="fil2" points="3021,3537 3021,3871 2947,3871 2947,3537 2762,3537 2762,3479 3207,3479 3207,3537 "/>
   <polygon id="5" class="fil2" points="3406,3871 3406,3479 3801,3479 3801,3537 3480,3537 3480,3638 3674,3638 3674,3696 3480,3696 3480,3814 3805,3814 3805,3871 "/>
   <path id="6" class="fil2" d="M4371 3537l-274 0 0 275 274 0 0 -94 74 14 0 46c0,36 -7,61 -20,74 -14,12 -39,19 -76,19l-231 0c-37,0 -62,-6 -75,-19 -14,-12 -20,-37 -20,-74l0 -206c0,-36 7,-61 20,-74 13,-13 38,-19 75,-19l231 0c37,0 62,6 76,20 13,13 20,37 20,73l0 37 -74 12 0 -84z"/>
   <polygon id="7" class="fil2" points="4691,3871 4691,3480 4765,3480 4765,3637 5077,3637 5077,3480 5151,3480 5151,3871 5077,3871 5077,3696 4765,3696 4765,3871 "/>
   <path id="8" class="fil2" d="M6065 3536l-224 0 0 124 224 0c16,0 28,-3 34,-8 7,-6 10,-15 10,-29l0 -50c0,-13 -3,-23 -10,-28 -6,-6 -18,-9 -34,-9zm-298 335l0 -392 331 0c30,0 52,6 66,17 13,12 20,32 20,59l0 88c0,26 -7,45 -20,57 -14,12 -36,17 -66,17l-257 0 0 154 -74 0z"/>
   <polygon id="9" class="fil2" points="6571,3871 6345,3479 6425,3479 6601,3794 6769,3479 6842,3479 6628,3871 "/>
   <polygon id="10" class="fil2" points="7230,3537 7230,3871 7156,3871 7156,3537 6971,3537 6971,3479 7416,3479 7416,3537 "/>
   <polygon id="11" class="fil2" points="7961,3871 7961,3479 8035,3479 8035,3812 8341,3812 8341,3871 "/>
   <polygon id="12" class="fil2" points="8666,3537 8666,3871 8592,3871 8592,3537 8407,3537 8407,3479 8852,3479 8852,3537 "/>
   <path id="13" class="fil2" d="M9300 3537l-144 0 0 275 144 0c63,0 109,-11 136,-33 27,-21 40,-56 40,-106 0,-48 -14,-83 -41,-104 -27,-21 -72,-32 -135,-32zm8 -58c37,0 68,2 94,7 25,5 46,13 63,23 26,17 47,40 62,69 15,29 23,61 23,96 0,66 -20,115 -60,148 -40,33 -101,49 -182,49l-226 0 0 -392 226 0z"/>
  </g>
 </g>
</svg>
