<?xml version="1.0" encoding="UTF-8"?>
<!DOCTYPE svg PUBLIC "-//W3C//DTD SVG 1.1//EN" "http://www.w3.org/Graphics/SVG/1.1/DTD/svg11.dtd">
<!-- Creator: CorelDRAW X8 -->
<svg xmlns="http://www.w3.org/2000/svg" xml:space="preserve" width="50mm" height="50mm" version="1.1" style="shape-rendering:geometricPrecision; text-rendering:geometricPrecision; image-rendering:optimizeQuality; fill-rule:evenodd; clip-rule:evenodd"
viewBox="0 0 5000 5000"
 xmlns:xlink="http://www.w3.org/1999/xlink">
 <defs>
  <style type="text/css">
   <![CDATA[
    .fil0 {fill:#163D6F;fill-rule:nonzero}
    .fil1 {fill:url(#id0)}
    .fil2 {fill:url(#id1)}
   ]]>
  </style>
  <linearGradient id="id0" gradientUnits="userSpaceOnUse" x1="4325.08" y1="3685.8" x2="2788.3" y2="1806.88">
   <stop offset="0" style="stop-opacity:1; stop-color:#5E5971"/>
   <stop offset="0.290196" style="stop-opacity:1; stop-color:#3A5E97"/>
   <stop offset="0.501961" style="stop-opacity:1; stop-color:#2196F3"/>
   <stop offset="1" style="stop-opacity:1; stop-color:#1564BE"/>
  </linearGradient>
  <linearGradient id="id1" gradientUnits="userSpaceOnUse" xlink:href="#id0" x1="672.126" y1="1291.84" x2="2208.91" y2="3170.76">
  </linearGradient>
 </defs>
 <g id="Layer_x0020_1">
  <metadata id="CorelCorpID_0Corel-Layer"/>
  <g id="_2978517179168">
   <g>
    <path class="fil0" d="M2370 3940c-9,-4 61,99 221,52 69,-30 140,-124 107,-232 -32,-103 -155,-192 -289,-160 -130,23 -259,138 -271,294 -28,150 46,330 209,389 154,63 342,49 499,-28 153,-85 283,-216 426,-326 143,-112 296,-219 471,-270 174,-56 373,-24 513,85 141,105 231,267 245,431 15,164 -55,323 -166,419 -231,191 -533,149 -674,32 -148,-131 -118,-283 -117,-308 16,-131 102,-231 178,-267 78,-39 133,-29 132,-26 1,7 -52,7 -119,48 -67,39 -140,131 -155,250 -1,23 -28,158 103,276 125,107 415,151 632,-29 104,-88 171,-237 158,-393 -12,-155 -97,-311 -232,-413 -134,-106 -322,-137 -492,-84 -171,49 -323,153 -465,263 -145,109 -274,238 -432,326 -161,77 -352,90 -510,24 -167,-61 -243,-248 -212,-400 13,-159 146,-276 278,-298 137,-32 262,59 293,164 33,110 -40,205 -109,235 -161,46 -230,-58 -222,-54z"/>
    <path class="fil0" d="M4447 4007c-2,0 24,68 20,175 -3,104 -46,257 -170,344 -125,86 -291,80 -396,32 -109,-51 -150,-136 -153,-148 -23,-51 -5,-98 4,-94 11,2 11,39 29,80 3,9 35,84 133,134 93,47 254,58 372,-19 121,-78 169,-226 175,-329 8,-106 -16,-175 -14,-175z"/>
    <path class="fil0" d="M4112 3683c-5,-6 249,96 330,350 42,125 -21,261 -95,328 -82,67 -161,66 -170,69 -45,5 -80,-6 -79,-16 1,-10 35,-16 75,-20 9,-3 81,0 154,-56 68,-58 133,-182 97,-301 -67,-246 -317,-361 -312,-354z"/>
    <path class="fil0" d="M2867 4253c-1,-3 -76,43 -204,64 -121,21 -325,7 -434,-147 -107,-144 -80,-378 60,-450 140,-72 246,16 251,26 58,55 13,124 7,112 -10,-6 7,-51 -33,-87 -1,-5 -90,-83 -210,-24 -123,57 -159,271 -60,413 98,148 297,170 418,151 128,-17 204,-61 205,-58z"/>
    <path class="fil0" d="M2337 4311c0,-3 87,30 227,37 141,12 330,-48 476,-167 145,-121 255,-273 361,-367 104,-96 197,-140 210,-152 54,-42 55,-60 57,-67 5,-13 186,-5 274,-1 46,6 52,-8 -172,35 -110,29 -278,95 -456,292 -92,95 -191,224 -352,326 -159,104 -395,140 -625,64z"/>
    <path class="fil0" d="M4118 3695c-3,-3 206,48 314,234 118,174 124,396 128,413 16,39 31,45 38,48 6,6 -60,97 -79,142 -10,25 -13,28 11,-100 7,-64 17,-166 -24,-309 -42,-133 -132,-349 -388,-428z"/>
   </g>
   <g>
    <path class="fil0" d="M2627 1048c9,3 -61,-99 -221,-53 -69,30 -140,125 -107,233 32,103 155,192 289,159 130,-23 259,-137 271,-293 28,-151 -45,-330 -208,-389 -155,-63 -343,-49 -500,27 -153,86 -283,217 -426,327 -142,111 -295,218 -471,269 -174,56 -373,25 -513,-85 -141,-105 -231,-267 -245,-430 -15,-165 55,-324 166,-419 231,-192 533,-149 674,-32 148,131 119,283 117,307 -16,132 -102,231 -178,268 -78,38 -133,29 -132,26 -1,-7 52,-8 119,-49 67,-38 140,-130 155,-249 1,-23 28,-159 -103,-277 -125,-107 -415,-151 -632,29 -104,89 -171,238 -158,393 12,156 97,312 232,413 134,106 322,138 492,84 171,-48 323,-152 466,-263 144,-109 273,-238 431,-325 161,-77 352,-90 510,-25 167,62 243,249 213,401 -14,159 -146,276 -279,298 -136,32 -262,-59 -293,-164 -33,-111 40,-205 110,-235 161,-46 230,57 221,54z"/>
    <path class="fil0" d="M550 981c2,0 -24,-68 -19,-175 2,-105 45,-258 170,-345 124,-85 290,-80 396,-31 108,50 149,136 152,147 23,52 5,98 -4,95 -10,-3 -11,-40 -29,-81 -3,-8 -35,-83 -133,-134 -93,-47 -254,-58 -372,19 -121,78 -169,227 -175,330 -8,106 16,175 14,175z"/>
    <path class="fil0" d="M885 1305c5,6 -249,-97 -329,-350 -42,-125 20,-261 94,-328 82,-67 162,-66 170,-70 45,-4 80,7 79,16 0,11 -34,16 -75,20 -8,4 -80,1 -154,57 -68,57 -133,182 -97,300 68,247 317,362 312,355z"/>
    <path class="fil0" d="M2130 735c1,3 76,-43 204,-64 122,-22 325,-7 434,147 107,144 80,378 -60,449 -139,73 -246,-15 -251,-25 -58,-56 -13,-124 -7,-112 10,5 -7,50 33,86 1,5 90,83 210,25 123,-57 159,-272 60,-413 -98,-148 -297,-170 -418,-152 -128,18 -204,62 -205,59z"/>
    <path class="fil0" d="M2660 677c0,2 -87,-30 -227,-37 -140,-12 -330,48 -476,167 -145,121 -255,273 -360,367 -105,96 -198,139 -210,151 -55,43 -56,61 -58,68 -4,12 -186,5 -273,1 -47,-6 -53,8 172,-35 109,-29 277,-95 455,-292 92,-96 192,-224 353,-326 158,-104 394,-140 624,-64z"/>
    <path class="fil0" d="M879 1292c3,4 -205,-47 -313,-234 -118,-173 -125,-395 -129,-412 -16,-40 -31,-45 -38,-49 -6,-5 60,-96 79,-142 10,-24 13,-27 -11,101 -7,64 -17,166 24,309 42,133 132,349 388,427z"/>
   </g>
   <g>
    <path class="fil1" d="M2845 1402l35 41c34,41 102,122 137,179 36,58 38,91 40,124l-7 112c171,-107 316,-217 434,-330 94,-101 186,-110 274,-27 28,44 69,117 126,218l-13 510 -159 99c123,63 181,116 172,159l7 701c11,112 44,158 99,139 385,-357 595,-384 628,-80 22,70 -17,107 -119,113 104,-330 -55,-319 -476,33 -118,92 -191,157 -219,194l-99 14c-143,-23 -205,-215 -187,-577 -734,589 -967,893 -701,912 127,127 65,176 -185,146 -97,4 -101,-102 -13,-318 64,-86 142,-179 232,-278 6,-7 12,-13 18,-19 15,-18 38,-47 69,-87 -161,-30 -243,-115 -248,-255l-23 -546 -73 -6 7 -93 72 -6c-2,-7 -4,-14 -5,-127 -1,-114 -1,-334 -1,-444 0,-111 0,-111 -34,-111 -35,0 -103,0 -129,-11 -27,-11 -11,-33 4,-55l337 -324zm225 539l278 -205c86,-16 137,8 152,73l3 403c-96,63 -152,96 -168,99 110,94 168,137 175,129l-3 447c-118,75 -218,158 -301,248 -96,-12 -146,-83 -152,-212l-10 -327 92 -7 0 -122 -86 -7 20 -519z"/>
    <path class="fil2" d="M2152 3576l-34 -41c-35,-41 -103,-122 -138,-180 -35,-57 -38,-90 -40,-123l7 -113c-171,108 -316,218 -433,331 -95,101 -187,110 -275,26 -27,-43 -69,-116 -126,-218l14 -509 158 -99c-123,-63 -180,-116 -172,-159l-6 -701c-12,-112 -45,-158 -100,-139 -385,357 -595,384 -628,79 -22,-69 18,-106 119,-112 -103,330 55,319 476,-33 119,-92 192,-157 219,-195l99 -14c143,23 206,216 188,578 734,-589 967,-893 701,-912 -127,-127 -65,-176 185,-146 97,-4 101,102 13,318 -65,85 -143,178 -233,278 -6,6 -12,13 -17,19 -16,18 -39,47 -70,87 161,30 244,115 248,255l23 545 73 7 -6 92 -73 7c2,7 4,13 5,127 1,113 1,334 1,444 0,110 0,110 35,110 34,0 102,0 129,11 26,11 11,33 -5,56l-337 324zm-225 -539l-278 205c-86,16 -136,-9 -152,-73l-3 -404c96,-62 152,-95 168,-99 -110,-93 -168,-136 -175,-129l3 -446c118,-75 219,-158 301,-248 96,12 147,83 153,211l9 328 -92 6 0 123 86 6 -20 520z"/>
   </g>
  </g>
 </g>
</svg>
